<?xml version="1.0" encoding="utf-8"?>
<!-- Generator: Adobe Illustrator 22.1.0, SVG Export Plug-In . SVG Version: 6.00 Build 0)  -->
<svg version="1.1" id="Layer_1" xmlns="http://www.w3.org/2000/svg" xmlns:xlink="http://www.w3.org/1999/xlink" x="0px" y="0px"
	 viewBox="0 0 3132.6 695.1" style="enable-background:new 0 0 3132.6 695.1;" xml:space="preserve">
<style type="text/css">
	.st0{fill:#FFFFFF;}
</style>
<g>
	<path class="st0" d="M617.4,0h-37.8v428.2c0,46-10.9,72.7-36.3,89c-20.1,12.9-48.8,15.8-77.6,7.6c-1.2-0.4-14.9-5.5-22.6-9.2
		L198,395.1v183.6l174.5,87.2c27.2,12.8,55,21.9,82.6,27.1c10.9,1.4,22,2.1,32.6,2.1c125.4,0,232.2-89.5,254-212.9
		c2.7-15.1,4-30.3,4-45.1V117.9C745.7,64.1,723.5,0,617.4,0"/>
	<path class="st0" d="M128.3,695.1h37.8V266.9c0-46,10.9-72.7,36.3-89c20.1-12.9,48.8-15.8,77.6-7.6c1.2,0.4,14.9,5.5,22.6,9.2
		L547.7,300V116.4L373.2,29.2c-27.2-12.8-55-21.9-82.6-27.1C279.8,0.7,268.6,0,258,0C132.6,0,25.8,89.5,4,212.9
		C1.3,228,0,243.1,0,258l0,319.3C0,631,22.3,695.1,128.3,695.1"/>
	<path class="st0" d="M1073.9,625.7V517.2h22.9v108.5c0,34,16.9,50.9,50.7,50.9s50.7-17,50.7-50.9V517.2h22.9v108.5
		c0,46.3-24.5,69.5-73.5,69.5S1073.9,672,1073.9,625.7"/>
	<polygon class="st0" points="1280,517.2 1280,675.4 1372.4,675.4 1372.4,693.9 1257.1,693.9 1257.1,517.2 	"/>
	<path class="st0" d="M1520.6,687c-14.3,5.4-29.6,8.1-46.1,8.1c-64,0-96-30.7-96-92.1c0-58.1,30.9-87.1,92.7-87.1
		c17.7,0,34.2,2.5,49.4,7.4v19.8c-15.2-5.8-30.9-8.6-47-8.6c-48.2,0-72.3,22.9-72.3,68.6c0,49,23.7,73.5,71.2,73.5
		c7.6,0,16-1,25.2-3v-60.1h22.9V687z"/>
	<path class="st0" d="M1648.2,517.2h-25.3l-75,176.7h23.7l22.8-55.6h81l22.9,55.6h25.3L1648.2,517.2z M1601.9,619.8l32.8-80.1
		l33,80.1H1601.9z"/>
	<rect x="1910.6" y="517.2" class="st0" width="22.9" height="176.7"/>
	<path class="st0" d="M2062.2,517.2h-25.3l-75,176.7h23.7l22.8-55.6h81l22.9,55.6h25.3L2062.2,517.2z M2016,619.8l32.8-80.1l33,80.1
		H2016z"/>
	<path class="st0" d="M911.7,517.3h77.8c32.3,0,49,20.4,49,44.5c0,11.6-4.1,27.8-23.2,36.9c11.3,4.7,31.4,12.8,31.4,43
		c0,28.3-20.5,52.4-58.9,52.4h-76.1V517.3z M935.1,592h43.8c22.4,0,36.2-6.9,36.2-28.5c0-16.5-9.9-25.8-35.9-25.8h-44V592z
		 M935.1,673.6h51.5c24.4,0,36.7-12.8,36.7-32.4c0-24.8-21.5-29.7-40.5-29.7h-47.6V673.6z"/>
	<path class="st0" d="M1880,693.9l-59.7-80.2h4.9c36.3,0,49.6-26.3,49.6-49.6c0-27-18.6-47-49.6-47h-73.1v176.7h22.6v-80.2h20.7
		l56.2,80.2H1880z M1774.6,536.5h43.8c18.6,0,33,6.7,33,27.9c0,22.6-13.7,30-34,30h-42.9V536.5z"/>
	<path class="st0" d="M1295.4,240.8c63.4,0,95.1,32.4,95.1,97.1c0,8.6-0.6,17.2-1.8,25.9H1250c0,29.5,21.6,44.2,64.9,44.2
		c21.1,0,42.2-2,63.3-6v41.8c-18.4,4-40.9,6-67.3,6c-75.8,0-113.6-35.6-113.6-106.9C1197.3,274.8,1230,240.8,1295.4,240.8
		 M1250,327.2h89.1v-1.6c0-28.9-14.6-43.4-43.8-43.4C1267.6,282.2,1252.4,297.2,1250,327.2"/>
	<path class="st0" d="M1849.6,240.8c63.4,0,95.1,32.4,95.1,97.1c0,8.6-0.6,17.2-1.8,25.9h-138.7c0,29.5,21.6,44.2,64.9,44.2
		c21.1,0,42.2-2,63.3-6v41.8c-18.4,4-40.9,6-67.3,6c-75.8,0-113.6-35.6-113.6-106.9C1751.6,274.8,1784.3,240.8,1849.6,240.8
		 M1804.3,327.2h89.1v-1.6c0-28.9-14.6-43.4-43.8-43.4C1821.8,282.2,1806.7,297.2,1804.3,327.2"/>
	<path class="st0" d="M2112.1,439.8V396c23.2,9.3,50,13.9,80.4,13.9c22.7,0,34-7.3,34-21.9c0-13.9-7.6-20.9-22.9-20.9h-37.8
		c-42.5,0-63.7-20.9-63.7-62.7c0-43.8,31-65.7,92.9-65.7c26.3,0,51,4,74.2,11.9v43.8c-23.2-9.3-48.4-13.9-75.6-13.9
		c-28.5,0-42.8,7.3-42.8,21.9c0,13.9,8.3,20.9,24.9,20.9h33.8c46.4,0,69.6,20.9,69.6,62.7c0,43.8-29.6,65.7-88.7,65.7
		C2161.4,451.8,2135.3,447.8,2112.1,439.8"/>
	<path class="st0" d="M2465.8,443.8c-17.2,4-35.2,6-53.7,6c-74.3,0-111.4-36.1-111.4-108.4c0-67,37.1-100.5,111.4-100.5
		c18.6,0,36.5,2,53.7,6v41.8c-17.2-4-33.8-6-49.8-6c-41.8,0-62.7,19.6-62.7,58.7c0,44.5,20.9,66.7,62.7,66.7c15.9,0,32.5-2,49.8-6
		V443.8z"/>
	<path class="st0" d="M2502.5,449.8V165.2h52.7v102.3c16.4-17.8,37.5-26.7,63.1-26.7c49.5,0,74.2,25.7,74.2,77.2v131.7h-52.7V318
		c0-23.1-11.5-34.6-34.4-34.6c-17.1,0-33.8,6.8-50.2,20.5v145.9H2502.5z"/>
	<path class="st0" d="M2816.4,240.8c63.4,0,95.1,32.4,95.1,97.1c0,8.6-0.6,17.2-1.8,25.9H2771c0,29.5,21.6,44.2,64.9,44.2
		c21.1,0,42.2-2,63.3-6v41.8c-18.4,4-40.9,6-67.3,6c-75.8,0-113.6-35.6-113.6-106.9C2718.3,274.8,2751,240.8,2816.4,240.8
		 M2771,327.2h89.1v-1.6c0-28.9-14.6-43.4-43.8-43.4C2788.5,282.2,2773.4,297.2,2771,327.2"/>
	<polygon class="st0" points="3132.6,449.8 3041.2,342.6 3124.6,240.6 3066,240.6 2992.8,330.7 2992.8,165.2 2940.1,165.2 
		2940.1,449.8 2992.8,449.8 2992.8,357.6 3068.7,449.8 	"/>
	<path class="st0" d="M2022.1,230.3c0-12.8-10.4-23.2-23.2-23.2l-10.3,0h-13.3v186.4c0,37.5,17.5,56.3,52.5,56.3h47V408h-21.5
		c-16.9,0-25.3-9.7-25.3-29.3v-96.1h46.8v-41.8h-52.7V236V230.3z"/>
	<path class="st0" d="M1654.1,240.9c-23.4,0-45.7,9.6-67.1,28.7c-9.7-19.1-27.7-28.7-53.9-28.7c-26.3,0-48.9,10.1-67.6,30.2v-6.8
		c0-12.8-10.4-23.2-23.3-23.2l-10.3,0h-13.3v208.8h52.7V304.5c13.7-14.1,28.2-21.1,43.6-21.1c19.4,0,29.1,11.8,29.1,35.4v130.9h52.7
		V304.5c14.5-14.1,29.5-21.1,45.2-21.1c21,0,31.4,11.6,31.4,34.8v131.5h52.7V320.3C1726.1,267.3,1702.1,240.9,1654.1,240.9"/>
	<path class="st0" d="M911.7,449.6v-284h20.9c18.9,0,32.1-2.4,55.7,28c24.1,31.1,128.5,177,128.5,177v-205h52.7v284h-54.7
		L964.8,238.3v211.3H911.7z"/>
	<path class="st0" d="M1128.7,165.7"/>
</g>
</svg>
